<mxfile host="app.diagrams.net" modified="2020-10-20T14:12:32.239Z" agent="5.0 (Windows NT 10.0; Win64; x64) AppleWebKit/537.36 (KHTML, like Gecko) Chrome/86.0.4240.75 Safari/537.36" etag="MvYxJXQv4hjFQhttHb7v" version="13.8.1" type="github">
  <diagram id="P_tbtSZyV5CBPZrTsbmI" name="Page-1">
    <mxGraphModel dx="868" dy="450" grid="1" gridSize="10" guides="1" tooltips="1" connect="1" arrows="1" fold="1" page="1" pageScale="1" pageWidth="827" pageHeight="1169" math="0" shadow="0">
      <root>
        <mxCell id="0" />
        <mxCell id="1" parent="0" />
        <mxCell id="LHST-VwswC1pIzGXe7TI-1" value="start" style="ellipse;whiteSpace=wrap;html=1;" vertex="1" parent="1">
          <mxGeometry x="354" y="30" width="76" height="40" as="geometry" />
        </mxCell>
        <mxCell id="LHST-VwswC1pIzGXe7TI-2" value="&lt;br&gt;input" style="shape=internalStorage;whiteSpace=wrap;html=1;backgroundOutline=1;" vertex="1" parent="1">
          <mxGeometry x="345" y="110" width="85" height="50" as="geometry" />
        </mxCell>
        <mxCell id="LHST-VwswC1pIzGXe7TI-3" value="read input&amp;nbsp;" style="shape=parallelogram;perimeter=parallelogramPerimeter;whiteSpace=wrap;html=1;fixedSize=1;" vertex="1" parent="1">
          <mxGeometry x="332" y="200" width="120" height="60" as="geometry" />
        </mxCell>
        <mxCell id="LHST-VwswC1pIzGXe7TI-4" value="for i : 0 : input" style="shape=hexagon;perimeter=hexagonPerimeter2;whiteSpace=wrap;html=1;fixedSize=1;" vertex="1" parent="1">
          <mxGeometry x="332" y="290" width="120" height="80" as="geometry" />
        </mxCell>
      </root>
    </mxGraphModel>
  </diagram>
</mxfile>
